<svg width="641" height="352" viewBox="0 0 641 352" fill="none" xmlns="http://www.w3.org/2000/svg">
<path d="M69.3127 318.779L28.5262 313.102L33.7371 275.665L45.973 277.369L42.8032 300.141L46.979 300.722L50.0204 278.872L60.5569 280.339L57.5155 302.189L71.3538 304.115L69.3127 318.779Z" fill="white"/>
<path d="M89.3873 233.158L84.6245 246.917L73.3814 248.524L70.3344 257.326L79.8776 260.63L75.0346 274.621L36.1205 261.15L44.0426 238.265C47.8272 227.332 54.5161 222.695 65.1711 226.384C70.267 228.148 73.2034 231.654 74.4452 235.56L89.3873 233.158ZM52.5914 251.184L59.911 253.718L62.6372 245.843C63.5994 243.063 62.6747 241.239 60.4047 240.453C58.1347 239.667 56.2799 240.529 55.3177 243.309L52.5914 251.184Z" fill="white"/>
<path d="M108.284 198.797L103.239 197.564L94.5258 211.889L97.9409 215.802L89.9923 228.87L62.5291 194.779L73.331 177.02L116.258 185.688L108.284 198.797ZM86.9945 203.234L92.0898 194.857L80.4875 192.046L79.1627 194.224L86.9945 203.234Z" fill="white"/>
<path d="M135.815 165.359C126.133 175.568 113.461 176.32 103.822 167.178C94.1817 158.036 94.2612 145.342 103.943 135.133C111.061 127.628 121.723 123.01 133.028 132.177L123.312 142.422C119.577 140.163 116.128 140.879 113.227 143.938C109.955 147.388 109.815 152.593 113.942 156.507C118.032 160.386 123.259 160.005 126.531 156.554C129.432 153.495 129.964 150.013 127.439 146.335L137.154 136.09C146.978 146.961 143.034 157.746 135.815 165.359Z" fill="white"/>
<path d="M166.722 84.968L173.782 95.1061L161.793 103.454L178.266 127.11L166.076 135.598L149.603 111.943L137.655 120.263L130.595 110.125L166.722 84.968Z" fill="white"/>
<path d="M226.032 102.04L222.678 98.0742L207.204 104.527L207.662 109.701L193.545 115.588L191.404 71.8639L210.589 63.8633L240.194 96.1342L226.032 102.04ZM206.208 93.0978L215.258 89.3239L207.532 80.223L205.179 81.2042L206.208 93.0978Z" fill="white"/>
<path d="M246.202 94.3531L238.029 53.9925L252.54 51.0542L258.261 79.3066L279.21 75.0645L281.662 87.1726L246.202 94.3531Z" fill="white"/>
<path d="M347.087 86.913L332.551 86.0789L327.941 75.699L318.642 75.1654L318.063 85.2476L303.283 84.3995L305.642 43.2874L329.819 44.6747C341.37 45.3375 347.653 50.5102 347.007 61.7671C346.698 67.1508 344.124 70.9315 340.705 73.1905L347.087 86.913ZM319.717 56.4202L319.274 64.1532L327.594 64.6306C330.531 64.7991 332.034 63.4123 332.172 61.0141C332.309 58.6159 330.974 57.0661 328.038 56.8976L319.717 56.4202Z" fill="white"/>
<path d="M374.614 94.1754C360.751 90.4156 354.175 79.6414 357.652 66.8193C361.13 53.9971 372.249 48.0221 386.112 51.7819C400.022 55.5545 406.599 66.3287 403.121 79.1509C399.644 91.973 388.525 97.9481 374.614 94.1754ZM377.964 81.8264C382.553 83.0711 387.314 81.0608 388.88 75.2884C390.445 69.5161 387.352 65.3756 382.763 64.1309C378.221 62.899 373.412 64.8965 371.847 70.6689C370.281 76.4412 373.421 80.5945 377.964 81.8264Z" fill="white"/>
<path d="M433.684 116.048L434.597 110.935L419.752 103.142L416.062 106.797L402.519 99.687L434.812 70.1306L453.216 79.7922L447.27 123.18L433.684 116.048ZM427.915 95.0801L436.596 99.6375L438.671 87.8811L436.414 86.6962L427.915 95.0801Z" fill="white"/>
<path d="M495.056 108.061C508.1 118.98 507.004 129.379 499.357 138.513C491.742 147.61 481.667 150.557 468.623 139.638L452.309 125.981L478.741 94.4044L495.056 108.061ZM476.584 130.127C479.93 132.928 483.996 133.646 487.929 128.947C491.894 124.211 490.44 120.372 487.095 117.572L482.208 113.481L471.66 126.005L476.584 130.127Z" fill="white"/>
<path d="M490.618 157.289L523.168 132.065L534.579 146.791L520.844 164.442L521.505 165.294L542.026 156.401L553.436 171.126L520.886 196.35L512.238 185.189L524.948 175.34L524.257 174.449L509.085 181.121L502.419 172.518L512.667 159.491L511.976 158.6L499.266 168.449L490.618 157.289Z" fill="white"/>
<path d="M539.608 232.694L543.447 229.196L536.424 213.971L531.271 214.621L524.865 200.732L568.48 196.973L577.186 215.847L546.034 246.628L539.608 232.694ZM547.809 212.553L551.916 221.457L560.724 213.399L559.657 211.084L547.809 212.553Z" fill="white"/>
<path d="M548.306 251.911L588.47 242.822L593.761 266.203C596.26 277.248 593.005 285.072 581.768 287.615C570.58 290.147 564.273 284.487 561.784 273.49L559.75 264.501L551.573 266.351L548.306 251.911ZM571.751 261.785L573.482 269.435C574.088 272.113 575.827 273.579 578.457 272.984C581.135 272.378 582.073 270.306 581.478 267.676L579.736 259.978L571.751 261.785Z" fill="white"/>
</svg>
