<svg width="867" height="866" viewBox="0 0 867 866" fill="none" xmlns="http://www.w3.org/2000/svg">
<path d="M143.991 311.831C210.914 152.083 394.668 76.8343 554.415 143.758C714.163 210.681 789.412 394.434 722.489 554.182C655.565 713.93 471.812 789.179 312.064 722.255C152.317 655.332 77.0677 471.579 143.991 311.831Z" stroke="white" stroke-width="0.924112"/>
<path d="M247.078 355.017C290.151 252.203 408.415 203.773 511.229 246.845C614.043 289.917 662.474 408.181 619.401 510.995C576.329 613.81 458.065 662.24 355.251 619.168C252.437 576.096 204.006 457.832 247.078 355.017Z" stroke="white" stroke-width="0.924112"/>
<path d="M204.696 344.452L172.972 328.49L187.623 299.372L197.14 304.161L188.228 321.873L191.476 323.507L200.027 306.512L208.222 310.636L199.671 327.631L210.435 333.047L204.696 344.452Z" fill="white"/>
<path d="M242.433 281.718L235.141 291.941L225.449 290.532L220.784 297.072L227.875 302.129L220.461 312.524L191.548 291.903L203.675 274.899C209.469 266.776 216.132 264.569 224.048 270.216C227.835 272.916 229.41 276.532 229.486 280.066L242.433 281.718ZM207.601 287.67L213.04 291.548L217.213 285.697C218.686 283.632 218.365 281.897 216.679 280.694C214.992 279.491 213.248 279.753 211.775 281.818L207.601 287.67Z" fill="white"/>
<path d="M264.613 258.854L260.653 256.761L250.35 266.906L252.382 270.897L242.983 280.152L227.194 245.859L239.967 233.282L274.042 249.57L264.613 258.854ZM245.874 258.082L251.899 252.149L242.788 247.355L241.222 248.897L245.874 258.082Z" fill="white"/>
<path d="M292.616 237.796C282.628 244.685 271.801 243.061 265.297 233.629C258.792 224.198 261.122 213.501 271.11 206.612C278.454 201.548 288.273 199.552 296.178 209.302L286.155 216.214C283.406 213.642 280.368 213.632 277.375 215.696C273.999 218.024 272.954 222.391 275.738 226.429C278.498 230.431 282.976 231.041 286.352 228.712C289.345 226.648 290.414 223.805 288.939 220.252L298.963 213.339C305.315 224.262 300.064 232.66 292.616 237.796Z" fill="white"/>
<path d="M329.165 176.125L333.698 185.766L322.297 191.128L332.876 213.624L321.283 219.075L310.705 196.579L299.342 201.922L294.808 192.281L329.165 176.125Z" fill="white"/>
<path d="M374.842 199.165L372.404 195.407L358.464 199.245L358.293 203.721L345.576 207.222L348.5 169.583L365.782 164.824L387.6 195.652L374.842 199.165ZM358.855 189.359L367.008 187.114L361.388 178.488L359.268 179.072L358.855 189.359Z" fill="white"/>
<path d="M390.446 195.395L386.51 160.101L399.199 158.686L401.955 183.392L420.274 181.349L421.455 191.937L390.446 195.395Z" fill="white"/>
<path d="M470.571 176.173C473.687 178.251 475.484 180.799 475.106 184.798C474.573 190.438 470.207 194.399 458.885 193.329L436.829 191.245L440.171 155.889L463.026 158.049C473.885 159.075 476.16 164.216 475.726 168.804C475.34 172.887 473.084 174.288 470.642 175.416L470.571 176.173ZM460.676 167.637L451.963 166.813L451.546 171.233L460.258 172.056C462.615 172.279 463.248 170.98 463.327 170.138C463.415 169.212 463.033 167.86 460.676 167.637ZM459.341 183.563C461.698 183.786 462.358 182.192 462.43 181.434C462.513 180.55 462.147 179.029 459.79 178.807L450.909 177.967L450.46 182.723L459.341 183.563Z" fill="white"/>
<path d="M505.245 202.538L505.061 198.063L491.11 194.266L488.683 198.031L475.955 194.567L497.642 163.664L514.938 168.371L518.014 206.013L505.245 202.538ZM496.482 185.957L504.641 188.178L504.198 177.892L502.076 177.314L496.482 185.957Z" fill="white"/>
<path d="M538.307 216.566C527.345 211.364 523.334 201.178 528.245 190.827C533.157 180.476 543.584 177.14 554.546 182.342C562.606 186.166 569.247 193.669 564.761 205.392L553.76 200.172C554.611 196.505 553.101 193.87 549.816 192.311C546.111 190.553 541.807 191.833 539.704 196.264C537.62 200.657 539.333 204.838 543.038 206.596C546.323 208.155 549.319 207.658 551.658 204.603L562.658 209.823C556.379 220.788 546.481 220.444 538.307 216.566Z" fill="white"/>
<path d="M591.324 247.642L580.636 240.202L580.254 225.359L579.595 224.9L573.222 226.285L569.116 232.183L558.672 224.913L578.961 195.766L589.405 203.036L581.918 213.793L582.612 214.276L599.676 210.186L611.335 218.302L590.539 223.091L591.324 247.642Z" fill="white"/>
<path d="M613.48 271.015C604.892 261.624 603.768 254.786 611.024 248.623L618.784 257.052C617.286 258.546 617.587 260.683 620.789 264.286C623.564 267.362 625.576 267.924 626.509 267.065C627.007 266.607 627.763 265.681 625.898 263.031L623.277 259.122C619.53 253.492 614.087 246.894 621.117 240.423C626.373 235.583 633.474 236.804 641.435 245.451C648.536 253.165 651.499 260.378 643.523 267.319L635.792 258.921C637.058 257.238 636.76 255.042 633.925 251.963C631.491 249.319 629.857 249.042 628.924 249.901C628.488 250.302 627.818 251.321 629.17 253.352L631.254 256.49C635.223 262.548 642.189 269.927 634.724 276.8C628.876 282.183 621.954 280.281 613.48 271.015Z" fill="white"/>
<path d="M679.058 297.315L670.178 303.202L663.217 292.701L642.497 306.437L635.419 295.76L656.138 282.024L649.2 271.559L658.08 265.672L679.058 297.315Z" fill="white"/>
<path d="M658.017 337.61C652.992 326.288 656.624 316.025 667.096 311.377C677.568 306.729 687.615 310.919 692.641 322.241C697.683 333.602 694.051 343.864 683.579 348.512C673.107 353.161 663.06 348.97 658.017 337.61ZM668.103 333.133C669.767 336.881 673.702 338.974 678.416 336.881C683.131 334.789 684.219 330.466 682.555 326.718C680.908 323.008 676.956 320.877 672.241 322.97C667.527 325.062 666.456 329.423 668.103 333.133Z" fill="white"/>
<path d="M677.92 395.186L674.809 383.022L682.136 376.522L680.145 368.739L671.707 370.898L668.543 358.528L702.949 349.727L708.125 369.961C710.597 379.627 707.987 386.143 698.567 388.552C694.061 389.705 690.282 388.577 687.532 386.357L677.92 395.186ZM695.832 364.727L689.361 366.382L691.142 373.345C691.771 375.803 693.303 376.676 695.31 376.163C697.317 375.649 698.242 374.147 697.614 371.69L695.832 364.727Z" fill="white"/>
<path d="M717.49 434.853L691.739 422.498L680.871 423.426L679.781 410.663L690.776 409.724L713.935 393.234L715.079 406.629L703.204 414.645L703.287 415.614L716.349 421.499L717.49 434.853Z" fill="white"/>
</svg>
